# xmcd CD database file
#
# Track frame offsets:
#	150
#	22399
#	44547
#	65639
#	84949
#	107110
#	126074
#	147625
#	170798
#	189270
#	212458
#	234846
#
# Disc length: 3425 seconds
#
# Revision: 0
# Processed by: cddbd v1.5.2PL0 Copyright (c) Steve Scherf et al.
# Submitted via: jetAudio 7
#
DISCID=ac0d5f0c
DTITLE=Various Artist - Tình music Platinum 68
DYEAR=1900
DGENRE=Vietnamese
TTITLE0=Phút Bên Nàng
TTITLE1=Khi
TTITLE2=Kẻ Đếm Thời Gian
TTITLE3=Tuổi Buồn Riêng Em
TTITLE4=Phai Dấu Cuộc Tình
TTITLE5=Live To Tell
TTITLE6=Người Phụ Tình Tôi
TTITLE7=Trái Tim Không Lời
TTITLE8=Bởi Vì Anh Yêu Em
TTITLE9=Giọt Nước Mắt Ân Hận
TTITLE10=Phút bên nàng (Karaoke)
TTITLE11=Hai Dấu Cuộc Tình (Karaoke)
EXTD=
EXTT0=
EXTT1=
EXTT2=
EXTT3=
EXTT4=
EXTT5=
EXTT6=
EXTT7=
EXTT8=
EXTT9=
EXTT10=
EXTT11=
PLAYORDER=
